<svg width="56" height="56" viewBox="0 0 56 56" fill="none" xmlns="http://www.w3.org/2000/svg">
<rect width="56" height="56" rx="28" fill="#0B1F3B"/>
<path d="M24.9536 37.8212C23.9158 37.8212 22.8475 37.7371 21.7729 37.5687C19.8802 37.2717 17.9642 36.2816 17.422 35.9852L16 35.2077L17.5395 34.7014C19.2224 34.1481 20.2462 33.8048 21.5134 33.2672C20.2445 32.6527 19.2666 31.5473 18.7958 30.1184L18.4377 29.0311L18.7314 29.0759C18.4529 28.7952 18.233 28.5103 18.0625 28.2512C17.4562 27.3304 17.1352 26.2052 17.2035 25.241L17.2709 24.292L17.8391 24.5121C17.5994 24.0594 17.4262 23.576 17.3244 23.0694C17.0763 21.8338 17.2839 20.5211 17.9092 19.3733L18.4042 18.4647L19.0661 19.2597C21.1595 21.7745 23.811 23.2662 26.958 23.7029C26.8295 22.8169 26.9258 21.9618 27.2446 21.1953C27.6158 20.3029 28.276 19.5461 29.1535 19.0067C30.1279 18.4077 31.3097 18.1175 32.481 18.1895C33.7237 18.2658 34.852 18.7315 35.7481 19.5369C36.1858 19.4232 36.5082 19.3018 36.944 19.1378C37.2062 19.0391 37.5036 18.927 37.8756 18.7989L39.2467 18.3264L38.3526 20.88C38.4116 20.8751 38.4724 20.8709 38.5359 20.8681L40 20.8018L39.1346 21.9845C39.085 22.0523 39.0724 22.0715 39.0548 22.098C38.9851 22.2031 38.8983 22.3339 37.7105 23.9199C37.4131 24.3171 37.2646 24.8343 37.2923 25.3767C37.3975 27.4377 37.1447 29.3024 36.5402 30.9189C35.9686 32.4482 35.0827 33.7603 33.9076 34.8188C32.4534 36.1284 30.5991 37.025 28.396 37.4835C27.3153 37.7084 26.1548 37.8212 24.9536 37.8212Z" fill="white"/>
</svg>
