<svg width="56" height="56" viewBox="0 0 56 56" fill="none" xmlns="http://www.w3.org/2000/svg">
<rect width="56" height="56" rx="28" fill="#0B1F3B"/>
<path d="M22.3254 28.7824H24.9561V39.6129C24.9561 39.8267 25.1294 40 25.3432 40H29.8038C30.0177 40 30.1909 39.8267 30.1909 39.6129V28.8334H33.2152C33.4119 28.8334 33.5773 28.6859 33.5998 28.4905L34.0591 24.5033C34.0717 24.3936 34.037 24.2837 33.9636 24.2014C33.8901 24.119 33.785 24.0719 33.6746 24.0719H30.1911V21.5725C30.1911 20.819 30.5968 20.437 31.397 20.437C31.511 20.437 33.6746 20.437 33.6746 20.437C33.8885 20.437 34.0617 20.2636 34.0617 20.0499V16.39C34.0617 16.1761 33.8885 16.0029 33.6746 16.0029H30.5357C30.5135 16.0018 30.4644 16 30.3919 16C29.8473 16 27.9541 16.1069 26.4587 17.4827C24.8018 19.0072 25.0321 20.8326 25.0871 21.1491V24.0718H22.3254C22.1115 24.0718 21.9383 24.2451 21.9383 24.4589V28.3952C21.9383 28.6091 22.1115 28.7824 22.3254 28.7824Z" fill="white"/>
</svg>
