<svg width="56" height="56" viewBox="0 0 56 56" fill="none" xmlns="http://www.w3.org/2000/svg">
<rect width="56" height="56" rx="28" fill="#0B1F3B"/>
<path d="M39.939 23.055C39.8828 21.7795 39.6765 20.9027 39.381 20.1428C39.0762 19.3363 38.6073 18.6142 37.9929 18.014C37.3927 17.4044 36.6658 16.9307 35.8686 16.6306C35.1044 16.3352 34.2321 16.1289 32.9567 16.0727C31.6717 16.0117 31.2638 15.9976 28.0047 15.9976C24.7456 15.9976 24.3377 16.0117 23.0574 16.0679C21.782 16.1241 20.9051 16.3306 20.1455 16.6259C19.3388 16.9307 18.6167 17.3996 18.0164 18.014C17.4068 18.6142 16.9333 19.3411 16.6331 20.1383C16.3376 20.9027 16.1313 21.7748 16.0751 23.0502C16.0141 24.3352 16 24.7431 16 28.0022C16 31.2613 16.0141 31.6692 16.0703 32.9495C16.1266 34.2249 16.333 35.1018 16.6285 35.8616C16.9333 36.6681 17.4068 37.3902 18.0164 37.9905C18.6167 38.6001 19.3435 39.0738 20.1407 39.3738C20.9051 39.6693 21.7772 39.8756 23.0529 39.9318C24.3329 39.9882 24.741 40.0021 28.0001 40.0021C31.2592 40.0021 31.6671 39.9882 32.9473 39.9318C34.2228 39.8756 35.0997 39.6693 35.8593 39.3738C37.4725 38.7501 38.748 37.4747 39.3717 35.8616C39.667 35.0972 39.8734 34.2249 39.9297 32.9495C39.9859 31.6692 40 31.2613 40 28.0022C40 24.7431 39.9952 24.3352 39.939 23.055ZM37.7773 32.8557C37.7257 34.028 37.5288 34.6611 37.3646 35.0831C36.9613 36.1289 36.1313 36.9588 35.0856 37.3622C34.6635 37.5263 34.0259 37.7232 32.8581 37.7747C31.592 37.8311 31.2123 37.8451 28.0094 37.8451C24.8066 37.8451 24.4221 37.8311 23.1606 37.7747C21.9882 37.7232 21.3552 37.5263 20.9331 37.3622C20.4127 37.1699 19.939 36.8651 19.5545 36.4665C19.156 36.0772 18.8511 35.6083 18.6588 35.0879C18.4947 34.6658 18.2978 34.028 18.2463 32.8604C18.1899 31.5943 18.176 31.2144 18.176 28.0116C18.176 24.8087 18.1899 24.4242 18.2463 23.1629C18.2978 21.9906 18.4947 21.3575 18.6588 20.9355C18.8511 20.4149 19.156 19.9414 19.5593 19.5567C19.9484 19.1581 20.4173 18.8533 20.9379 18.6611C21.3599 18.497 21.9978 18.3001 23.1653 18.2484C24.4314 18.1922 24.8114 18.1781 28.014 18.1781C31.2216 18.1781 31.6013 18.1922 32.8629 18.2484C34.0352 18.3001 34.6683 18.497 35.0903 18.6611C35.6107 18.8533 36.0844 19.1581 36.4689 19.5567C36.8675 19.9459 37.1723 20.4149 37.3646 20.9355C37.5288 21.3575 37.7257 21.9951 37.7773 23.1629C37.8336 24.429 37.8477 24.8087 37.8477 28.0116C37.8477 31.2144 37.8336 31.5896 37.7773 32.8557Z" fill="white"/>
<path d="M28.0047 21.8358C24.6003 21.8358 21.8382 24.5977 21.8382 28.0022C21.8382 31.4068 24.6003 34.1687 28.0047 34.1687C31.4092 34.1687 34.1711 31.4068 34.1711 28.0022C34.1711 24.5977 31.4092 21.8358 28.0047 21.8358ZM28.0047 32.0023C25.7961 32.0023 24.0046 30.211 24.0046 28.0022C24.0046 25.7935 25.7961 24.0022 28.0047 24.0022C30.2134 24.0022 32.0047 25.7935 32.0047 28.0022C32.0047 30.211 30.2134 32.0023 28.0047 32.0023Z" fill="white"/>
<path d="M35.8547 21.592C35.8547 22.3869 35.2101 23.0315 34.4149 23.0315C33.62 23.0315 32.9754 22.3869 32.9754 21.592C32.9754 20.7968 33.62 20.1524 34.4149 20.1524C35.2101 20.1524 35.8547 20.7968 35.8547 21.592Z" fill="white"/>
</svg>
